<svg width="93" height="134" viewBox="0 0 93 134" fill="none" xmlns="http://www.w3.org/2000/svg">
<g filter="url(#filter0_d_108_1246)">
<mask id="path-1-inside-1_108_1246" fill="white">
<path shape-rendering="crispEdges" d="M92.4932 85.5124C76.9703 112.291 49.973 125.712 32.1932 115.488C14.4134 105.264 12.5839 75.2666 28.1068 48.4876C43.6298 21.7086 70.627 8.28828 88.4068 18.5124C106.187 28.7365 108.016 58.7334 92.4932 85.5124ZM39.6964 55.1521C29.7617 72.2906 30.9326 91.4886 42.3117 98.0321C53.6908 104.576 70.969 95.9865 80.9037 78.8479C90.8384 61.7094 89.6675 42.5114 78.2884 35.9679C66.9093 29.4245 49.6311 38.0135 39.6964 55.1521Z"/>
</mask>
<path shape-rendering="crispEdges" d="M92.4932 85.5124C76.9703 112.291 49.973 125.712 32.1932 115.488C14.4134 105.264 12.5839 75.2666 28.1068 48.4876C43.6298 21.7086 70.627 8.28828 88.4068 18.5124C106.187 28.7365 108.016 58.7334 92.4932 85.5124ZM39.6964 55.1521C29.7617 72.2906 30.9326 91.4886 42.3117 98.0321C53.6908 104.576 70.969 95.9865 80.9037 78.8479C90.8384 61.7094 89.6675 42.5114 78.2884 35.9679C66.9093 29.4245 49.6311 38.0135 39.6964 55.1521Z" fill="#F4D738"/>
<path shape-rendering="crispEdges" d="M92.4932 85.5124C76.9703 112.291 49.973 125.712 32.1932 115.488C14.4134 105.264 12.5839 75.2666 28.1068 48.4876C43.6298 21.7086 70.627 8.28828 88.4068 18.5124C106.187 28.7365 108.016 58.7334 92.4932 85.5124ZM39.6964 55.1521C29.7617 72.2906 30.9326 91.4886 42.3117 98.0321C53.6908 104.576 70.969 95.9865 80.9037 78.8479C90.8384 61.7094 89.6675 42.5114 78.2884 35.9679C66.9093 29.4245 49.6311 38.0135 39.6964 55.1521Z" stroke="black" strokeWidth="6" mask="url(#path-1-inside-1_108_1246)"/>
</g>
<defs>
<filter id="filter0_d_108_1246" x="17.5631" y="15.0846" width="91.4739" height="107.831" filterUnits="userSpaceOnUse" color-interpolation-filters="sRGB">
<feFlood flood-opacity="0" result="BackgroundImageFix"/>
<feColorMatrix in="SourceAlpha" type="matrix" values="0 0 0 0 0 0 0 0 0 0 0 0 0 0 0 0 0 0 127 0" result="hardAlpha"/>
<feOffset dx="6" dy="4"/>
<feComposite in2="hardAlpha" operator="out"/>
<feColorMatrix type="matrix" values="0 0 0 0 0 0 0 0 0 0 0 0 0 0 0 0 0 0 1 0"/>
<feBlend mode="normal" in2="BackgroundImageFix" result="effect1_dropShadow_108_1246"/>
<feBlend mode="normal" in="SourceGraphic" in2="effect1_dropShadow_108_1246" result="shape"/>
</filter>
</defs>
</svg>
