<svg width="98" height="102" viewBox="0 0 98 102" fill="none" xmlns="http://www.w3.org/2000/svg" style="filter: drop-shadow(6px 4px 0 rgba(0, 0, 0, 1))">
<g filter="url(#filter0_d_108_1238)">
<mask id="path-1-inside-1_108_1238" fill="white">
<path shape-rendering="crispEdges" fill-rule="evenodd" clip-rule="evenodd" d="M-7.40619 0.7823C-6.44895 0.226182 -5.22059 0.557376 -4.66793 1.5206L8.48424 24.4432L28.0702 13.0646C29.0274 12.5085 30.2558 12.8397 30.8084 13.8029L43.9608 36.7259L63.5468 25.3473C64.5041 24.7912 65.7324 25.1224 66.2851 26.0856L91.168 69.4534C91.7164 70.4093 91.3921 71.6273 90.4421 72.1792L47.3437 97.2176C46.3864 97.7738 45.1581 97.4426 44.6054 96.4793L31.4529 73.5561L11.8667 84.9349C10.9095 85.491 9.68114 85.1598 9.12848 84.1966L-4.02358 61.2741L-23.6093 72.6526C-24.5666 73.2088 -25.7949 72.8776 -26.3476 71.9144L-51.2305 28.5465C-51.7789 27.5906 -51.4546 26.3726 -50.5046 25.8207L-7.40619 0.7823Z"/>
</mask>
<path shape-rendering="crispEdges" fill-rule="evenodd" clip-rule="evenodd" d="M-7.40619 0.7823C-6.44895 0.226182 -5.22059 0.557376 -4.66793 1.5206L8.48424 24.4432L28.0702 13.0646C29.0274 12.5085 30.2558 12.8397 30.8084 13.8029L43.9608 36.7259L63.5468 25.3473C64.5041 24.7912 65.7324 25.1224 66.2851 26.0856L91.168 69.4534C91.7164 70.4093 91.3921 71.6273 90.4421 72.1792L47.3437 97.2176C46.3864 97.7738 45.1581 97.4426 44.6054 96.4793L31.4529 73.5561L11.8667 84.9349C10.9095 85.491 9.68114 85.1598 9.12848 84.1966L-4.02358 61.2741L-23.6093 72.6526C-24.5666 73.2088 -25.7949 72.8776 -26.3476 71.9144L-51.2305 28.5465C-51.7789 27.5906 -51.4546 26.3726 -50.5046 25.8207L-7.40619 0.7823Z" fill="#FF69B4"/>
<path shape-rendering="crispEdges" d="M-4.66793 1.5206L-7.27004 3.01359V3.0136L-4.66793 1.5206ZM-7.40619 0.7823L-8.91321 -1.81171L-7.40619 0.7823ZM8.48424 24.4432L5.88213 25.9362L7.38321 28.5524L9.99126 27.0372L8.48424 24.4432ZM28.0702 13.0646L26.5632 10.4706L28.0702 13.0646ZM30.8084 13.8029L28.2063 15.2959V15.2959L30.8084 13.8029ZM43.9608 36.7259L41.3587 38.2189L42.8598 40.8351L45.4679 39.3199L43.9608 36.7259ZM63.5468 25.3473L62.0398 22.7533L62.0398 22.7533L63.5468 25.3473ZM66.2851 26.0856L68.8872 24.5926V24.5926L66.2851 26.0856ZM91.168 69.4534L93.7701 67.9604L91.168 69.4534ZM90.4421 72.1792L91.9491 74.7732V74.7732L90.4421 72.1792ZM47.3437 97.2176L45.8367 94.6236L47.3437 97.2176ZM44.6054 96.4793L42.0033 97.9723L42.0033 97.9723L44.6054 96.4793ZM31.4529 73.5561L34.055 72.0631L32.5539 69.4469L29.9459 70.9621L31.4529 73.5561ZM11.8667 84.9349L10.3597 82.3409H10.3597L11.8667 84.9349ZM9.12848 84.1966L6.52637 85.6896H6.52638L9.12848 84.1966ZM-4.02358 61.2741L-1.42147 59.7811L-2.92255 57.165L-5.5306 58.6801L-4.02358 61.2741ZM-23.6093 72.6526L-25.1163 70.0586H-25.1163L-23.6093 72.6526ZM-26.3476 71.9144L-28.9497 73.4073L-28.9497 73.4074L-26.3476 71.9144ZM-51.2305 28.5465L-53.8326 30.0395H-53.8326L-51.2305 28.5465ZM-50.5046 25.8207L-48.9976 28.4147H-48.9976L-50.5046 25.8207ZM-2.06582 0.0276078C-3.44177 -2.3705 -6.51019 -3.20777 -8.91321 -1.81171L-5.89918 3.37631C-6.38771 3.66013 -6.99942 3.48526 -7.27004 3.01359L-2.06582 0.0276078ZM11.0863 22.9502L-2.06582 0.027605L-7.27004 3.0136L5.88213 25.9362L11.0863 22.9502ZM26.5632 10.4706L6.97723 21.8492L9.99126 27.0372L29.5772 15.6586L26.5632 10.4706ZM33.4105 12.3099C32.0346 9.91177 28.9662 9.07455 26.5632 10.4706L29.5772 15.6586C29.0887 15.9424 28.477 15.7676 28.2063 15.2959L33.4105 12.3099ZM46.563 35.2329L33.4105 12.3099L28.2063 15.2959L41.3587 38.2189L46.563 35.2329ZM45.4679 39.3199L65.0538 27.9413L62.0398 22.7533L42.4538 34.1319L45.4679 39.3199ZM65.0538 27.9413C64.5653 28.2251 63.9536 28.0502 63.683 27.5786L68.8872 24.5926C67.5112 22.1945 64.4428 21.3572 62.0398 22.7533L65.0538 27.9413ZM63.683 27.5786L88.5659 70.9464L93.7701 67.9604L68.8872 24.5926L63.683 27.5786ZM88.5659 70.9464C88.2973 70.4782 88.4504 69.8668 88.9351 69.5852L91.9491 74.7732C94.3338 73.3878 95.1356 70.3404 93.7701 67.9604L88.5659 70.9464ZM88.9351 69.5852L45.8367 94.6236L48.8507 99.8116L91.9491 74.7732L88.9351 69.5852ZM45.8367 94.6236C46.3252 94.3398 46.9369 94.5147 47.2075 94.9863L42.0033 97.9723C43.3793 100.37 46.4477 101.208 48.8507 99.8116L45.8367 94.6236ZM47.2075 94.9863L34.055 72.0631L28.8508 75.0491L42.0033 97.9723L47.2075 94.9863ZM13.3738 87.5289L32.9599 76.1501L29.9459 70.9621L10.3597 82.3409L13.3738 87.5289ZM6.52638 85.6896C7.90233 88.0877 10.9708 88.9249 13.3738 87.5289L10.3597 82.3409C10.8483 82.057 11.46 82.2319 11.7306 82.7036L6.52638 85.6896ZM-6.62569 62.7671L6.52637 85.6896L11.7306 82.7036L-1.42147 59.7811L-6.62569 62.7671ZM-22.1023 75.2467L-2.51657 63.8682L-5.5306 58.6801L-25.1163 70.0586L-22.1023 75.2467ZM-28.9497 73.4074C-27.5737 75.8054 -24.5053 76.6427 -22.1023 75.2467L-25.1163 70.0586C-24.6278 69.7748 -24.0161 69.9497 -23.7455 70.4213L-28.9497 73.4074ZM-53.8326 30.0395L-28.9497 73.4073L-23.7455 70.4214L-48.6284 27.0535L-53.8326 30.0395ZM-52.0116 23.2267C-54.3963 24.6121 -55.1981 27.6596 -53.8326 30.0395L-48.6284 27.0535C-48.3598 27.5217 -48.5129 28.1331 -48.9976 28.4147L-52.0116 23.2267ZM-8.91321 -1.81171L-52.0117 23.2267L-48.9976 28.4147L-5.89918 3.37631L-8.91321 -1.81171Z" fill="black" mask="url(#path-1-inside-1_108_1238)"/>
</g>
</svg>
