<svg width="121" height="134" viewBox="0 0 121 134" fill="none" xmlns="http://www.w3.org/2000/svg" style="filter: drop-shadow(6px 4px 0 rgba(0, 0, 0, 1))">
<g filter="url(#filter0_d_2259_7781)">
<path d="M92.4933 85.5123C76.9703 112.291 49.9731 125.712 32.1933 115.488C14.4134 105.263 12.5839 75.2665 28.1068 48.4875C43.6298 21.7086 70.627 8.28818 88.4069 18.5123C106.187 28.7364 108.016 58.7333 92.4933 85.5123ZM39.6964 55.152C29.7617 72.2905 30.9326 91.4886 42.3117 98.032C53.6908 104.575 70.969 95.9864 80.9037 78.8478C90.8384 61.7093 89.6675 42.5113 78.2884 35.9678C66.9093 29.4244 49.6311 38.0134 39.6964 55.152Z" fill="#F4D738"/>
<path d="M91.1955 84.76C83.561 97.9306 73.1361 107.757 62.5219 113.033C51.8949 118.316 41.258 118.97 32.941 114.187C24.6257 109.406 19.8786 99.9076 19.1587 88.1043C18.4396 76.3139 21.7699 62.4105 29.4046 49.2398C37.0391 36.0692 47.464 26.2433 58.0782 20.9669C68.7052 15.6843 79.3421 15.03 87.6591 19.8126C95.9744 24.5942 100.721 34.0923 101.441 45.8955C102.16 57.6859 98.8302 71.5894 91.1955 84.76ZM38.3987 54.3997C33.3045 63.1878 31.0205 72.5624 31.5142 80.6565C32.007 88.7376 35.2998 95.7302 41.564 99.3323C47.8264 102.933 55.5481 102.277 62.8171 98.6638C70.0988 95.0441 77.1072 88.3883 82.2014 79.6001C87.2956 70.812 89.5796 61.4374 89.0859 53.3433C88.5931 45.2623 85.3003 38.2697 79.0361 34.6675C72.7737 31.0664 65.052 31.7226 57.7831 35.336C50.5013 38.9557 43.4929 45.6115 38.3987 54.3997Z" stroke="black" stroke-width="3"/>
</g>

</svg>

