<svg width="60" height="57" viewBox="0 0 60 57" fill="none" xmlns="http://www.w3.org/2000/svg" style="filter: drop-shadow(4px 2px 0 rgba(0, 0, 0, 1))">
<g filter="url(#filter0_d_108_1251)">
<path shape-rendering="crispEdges" d="M50.2077 34.3313C47.1424 34.7692 44.2231 35.0611 41.1578 34.4773C36.7789 33.6015 33.2757 31.412 30.0645 28.6387C34.4434 28.9306 38.2385 26.3032 41.0119 23.092C44.3691 18.859 46.2666 13.4583 44.9529 8.05756C43.7852 4.1165 40.7199 -0.408423 36.195 0.0294732C34.2975 0.175439 33.8596 2.36492 34.1515 4.1165C34.7353 7.61967 35.0273 10.6849 34.4434 14.1881C33.5676 18.4211 31.3781 21.7783 28.7508 24.9895C28.7508 21.4864 27.1452 18.2751 24.8097 15.7937C24.5178 15.6478 24.3718 15.3558 24.0799 15.0639C19.1171 10.6849 11.6728 8.05756 5.54229 11.4148C2.62298 13.1663 -0.734221 15.9397 0.141571 19.5888C0.579467 21.0485 2.33105 21.4864 3.7907 21.3404C7.29387 20.7565 10.6511 20.1727 14.1542 20.9025C17.9493 21.7783 21.1606 23.238 24.0799 25.7194C24.2258 25.8653 24.2258 26.0113 24.5178 26.1573C15.176 27.0331 8.75352 37.1047 10.3591 46.1545C10.6511 48.0521 11.3809 49.6577 12.5486 51.2633C14.3002 53.5987 17.2195 55.9342 20.1388 54.6205C20.2848 54.4745 20.4307 54.3286 20.5767 54.1826C21.0146 53.5987 21.3065 52.8689 21.3065 52.1391C21.0146 48.0521 19.8469 43.8191 21.3065 39.732C21.3065 39.5861 21.3065 39.2941 21.3065 39.1482C22.3283 35.9369 23.9339 33.0176 26.2694 30.5362C26.2694 34.6232 28.6048 38.2724 31.816 40.8998C32.5459 41.4836 33.2757 42.0675 34.1515 42.5054C37.5087 44.257 41.0119 45.5706 44.807 45.2787C48.3101 44.9868 51.5214 43.3812 53.7108 40.6078C54.7326 39.2941 55.6084 37.6885 55.0245 35.9369C54.2947 34.0394 51.9593 33.8934 50.2077 34.3313Z" fill="#FC7339"/>
<path shape-rendering="crispEdges" d="M50.3491 35.3213L50.4002 35.314L50.4502 35.3015C51.2196 35.1091 52.0696 35.0602 52.7614 35.2296C53.4167 35.3901 53.8619 35.7201 54.0831 36.2754C54.4801 37.5012 53.9101 38.7221 52.9236 39.9912C50.9197 42.5277 47.9737 44.0105 44.7274 44.2819C41.214 44.5513 37.9149 43.3409 34.6141 41.6188L34.6064 41.6148L34.5987 41.6109C33.8339 41.2285 33.1845 40.7138 32.4451 40.1224C29.3827 37.6153 27.2694 34.2263 27.2694 30.5362V28.0146L25.5412 29.8509C23.0906 32.4546 21.4149 35.5097 20.3536 38.845L20.3065 38.9929V39.1482V39.149V39.1499V39.1508V39.1516V39.1525V39.1534V39.1542V39.1551V39.156V39.1569V39.1578V39.1587V39.1596V39.1605V39.1614V39.1623V39.1632V39.1641V39.165V39.1659V39.1668V39.1678V39.1687V39.1696V39.1706V39.1715V39.1724V39.1734V39.1743V39.1753V39.1762V39.1772V39.1781V39.1791V39.1801V39.181V39.182V39.183V39.1839V39.1849V39.1859V39.1869V39.1879V39.1889V39.1898V39.1908V39.1918V39.1928V39.1938V39.1948V39.1958V39.1969V39.1979V39.1989V39.1999V39.2009V39.2019V39.203V39.204V39.205V39.2061V39.2071V39.2081V39.2092V39.2102V39.2113V39.2123V39.2134V39.2144V39.2155V39.2165V39.2176V39.2187V39.2197V39.2208V39.2219V39.2229V39.224V39.2251V39.2262V39.2272V39.2283V39.2294V39.2305V39.2316V39.2327V39.2338V39.2349V39.236V39.2371V39.2382V39.2393V39.2404V39.2415V39.2426V39.2437V39.2449V39.246V39.2471V39.2482V39.2494V39.2505V39.2516V39.2527V39.2539V39.255V39.2561V39.2573V39.2584V39.2596V39.2607V39.2619V39.263V39.2642V39.2653V39.2665V39.2676V39.2688V39.2699V39.2711V39.2723V39.2734V39.2746V39.2758V39.2769V39.2781V39.2793V39.2805V39.2816V39.2828V39.284V39.2852V39.2864V39.2875V39.2887V39.2899V39.2911V39.2923V39.2935V39.2947V39.2959V39.2971V39.2983V39.2995V39.3007V39.3019V39.3031V39.3043V39.3055V39.3067V39.3079V39.3091V39.3103V39.3116V39.3128V39.314V39.3152V39.3164V39.3176V39.3189V39.3201V39.3213V39.3225V39.3238V39.325V39.3262V39.3275V39.3287V39.3299V39.3312V39.3324V39.3336V39.3349V39.3361V39.3373V39.3386V39.3398V39.3411V39.3423V39.3436V39.3448V39.346V39.3473V39.3485V39.3498V39.351V39.3523V39.3535V39.3548V39.3561V39.3573V39.3586V39.3598V39.3611V39.3623V39.3636V39.3649V39.3661V39.3674V39.3686V39.3699V39.3712V39.3724V39.3737V39.375V39.3762V39.3775V39.3788V39.38V39.3813V39.3826V39.3838V39.3851V39.3864V39.3877V39.3889V39.3902V39.3915V39.3927V39.394V39.3953V39.3966V39.3978V39.3991V39.4004V39.4017V39.403V39.4042V39.4055V39.4068V39.4081V39.4093V39.4106V39.4119V39.4132V39.4145V39.4157V39.417V39.4183V39.4196V39.4209V39.4221V39.4234V39.4247V39.426V39.4273V39.4286V39.4298V39.4311V39.4324V39.4337V39.435V39.4363V39.4375V39.4388V39.4401V39.4414V39.4427V39.444V39.4452V39.4465V39.4478V39.4491V39.4504V39.4516V39.4529V39.4542V39.4555V39.4568V39.4581V39.4593V39.4606V39.4619V39.4632V39.4645V39.4657V39.467V39.4683V39.4696V39.4709V39.4721V39.4734V39.4747V39.476V39.4773V39.4785V39.4798V39.4811V39.4824V39.4836V39.4849V39.4862V39.4875V39.4887V39.49V39.4913V39.4925V39.4938V39.4951V39.4964V39.4976V39.4989V39.5002V39.5014V39.5027V39.504V39.5052V39.5065V39.5078V39.509V39.5103V39.5116V39.5128V39.5141V39.5153V39.5166V39.5179V39.5191V39.5204V39.5216V39.5229V39.5241V39.5254V39.5267V39.5279V39.5292V39.5304V39.5317V39.5329V39.5342V39.5354V39.5366V39.5379V39.5391V39.5404V39.5416V39.5429V39.5441V39.5453V39.5466V39.5478V39.549V39.5503V39.5515V39.5527V39.554V39.5552V39.5564V39.5577V39.5589V39.5601V39.5613V39.5626V39.5626C19.5656 41.7361 19.5054 43.9149 19.6522 46.0056C19.7273 47.0761 19.8584 48.1419 19.9856 49.1734L19.9881 49.193C20.1138 50.2128 20.2354 51.1984 20.3062 52.171C20.2981 52.6156 20.12 53.1041 19.8157 53.5294L19.6507 53.6944L19.5697 53.7754C18.5239 54.1853 17.4537 54.0115 16.3821 53.431C15.2389 52.8118 14.1756 51.7646 13.353 50.6692C12.2654 49.1722 11.611 47.7149 11.3475 46.0024L11.3458 45.9911L11.3438 45.9798C9.82247 37.4052 15.9483 27.965 24.6111 27.1529L27.7508 26.8586V27.4822L27.149 27.4421L29.4108 29.3955C32.6981 32.2345 36.3546 34.5364 40.9617 35.4579L40.9617 35.4579L40.9707 35.4596C44.2094 36.0765 47.2688 35.7613 50.3491 35.3213ZM27.7508 24.9895V26.6557L25.0078 25.2842C25.0026 25.2766 24.9975 25.269 24.9929 25.2623C24.9509 25.2013 24.8843 25.1096 24.787 25.0123L24.7584 24.9836L24.7275 24.9574C21.6663 22.3554 18.3024 20.8335 14.3791 19.9281L14.3687 19.9257L14.3582 19.9235C10.7316 19.168 7.26832 19.7461 3.88248 20.3113C3.80838 20.3236 3.73432 20.336 3.66029 20.3483C3.06103 20.4039 2.44124 20.3356 1.95868 20.14C1.49366 19.9515 1.22102 19.6785 1.10688 19.3255C0.776599 17.9049 1.23668 16.6186 2.19964 15.4149C3.18063 14.1887 4.62338 13.1338 6.0397 12.2825C11.6246 9.23664 18.5843 11.5619 23.3928 15.7913C23.4506 15.8507 23.4895 15.8982 23.5441 15.965C23.5807 16.0096 23.6244 16.063 23.6855 16.1343C23.7922 16.2587 23.9504 16.4325 24.1766 16.581C26.3288 18.9082 27.7508 21.8453 27.7508 24.9895ZM30.131 27.6409L27.9903 27.4982L29.5247 25.6228C32.1924 22.3623 34.4989 18.8556 35.4227 14.3907L35.4266 14.3717L35.4298 14.3525C36.0404 10.6892 35.7287 7.49703 35.1379 3.9521C35.0119 3.1963 35.0578 2.40594 35.2821 1.83854C35.488 1.3179 35.7937 1.06329 36.2717 1.02653L36.2815 1.02577L36.2913 1.02482C38.1579 0.844187 39.7701 1.66975 41.105 3.08704C42.4446 4.50941 43.4345 6.46476 43.9871 8.31792C45.1944 13.3204 43.4546 18.3949 40.2414 22.4542C37.5559 25.5579 34.0445 27.9018 30.131 27.6409Z" stroke="black" strokeWidth="2"/>
</g>
</svg>
