<svg width="150" height="102" viewBox="0 0 150 102" fill="none" xmlns="http://www.w3.org/2000/svg" style="filter: drop-shadow(6px 4px 0 rgba(0, 0, 0, 1))">
<g filter="url(#filter0_d_2259_7773)">
<mask id="path-1-inside-1_2259_7773" fill="white">
<path fill-rule="evenodd" clip-rule="evenodd" d="M44.5938 0.7823C45.551 0.226182 46.7794 0.557376 47.3321 1.5206L60.4842 24.4432L80.0702 13.0646C81.0274 12.5085 82.2558 12.8397 82.8084 13.8029L95.9608 36.7259L115.547 25.3473C116.504 24.7912 117.732 25.1224 118.285 26.0856L143.168 69.4534C143.716 70.4093 143.392 71.6273 142.442 72.1792L99.3437 97.2176C98.3864 97.7738 97.1581 97.4426 96.6054 96.4793L83.4529 73.5561L63.8667 84.9349C62.9095 85.491 61.6811 85.1598 61.1285 84.1966L47.9764 61.2741L28.3907 72.6526C27.4334 73.2088 26.2051 72.8776 25.6524 71.9144L0.769524 28.5465C0.221062 27.5906 0.545401 26.3726 1.49536 25.8207L44.5938 0.7823Z"/>
</mask>
<path fill-rule="evenodd" clip-rule="evenodd" d="M44.5938 0.7823C45.551 0.226182 46.7794 0.557376 47.3321 1.5206L60.4842 24.4432L80.0702 13.0646C81.0274 12.5085 82.2558 12.8397 82.8084 13.8029L95.9608 36.7259L115.547 25.3473C116.504 24.7912 117.732 25.1224 118.285 26.0856L143.168 69.4534C143.716 70.4093 143.392 71.6273 142.442 72.1792L99.3437 97.2176C98.3864 97.7738 97.1581 97.4426 96.6054 96.4793L83.4529 73.5561L63.8667 84.9349C62.9095 85.491 61.6811 85.1598 61.1285 84.1966L47.9764 61.2741L28.3907 72.6526C27.4334 73.2088 26.2051 72.8776 25.6524 71.9144L0.769524 28.5465C0.221062 27.5906 0.545401 26.3726 1.49536 25.8207L44.5938 0.7823Z" fill="#FF69B4"/>
<path d="M47.3321 1.5206L44.73 3.01359V3.0136L47.3321 1.5206ZM44.5938 0.7823L46.1008 3.37631L44.5938 0.7823ZM60.4842 24.4432L57.8821 25.9362L59.3832 28.5524L61.9913 27.0372L60.4842 24.4432ZM80.0702 13.0646L78.5632 10.4706L80.0702 13.0646ZM82.8084 13.8029L85.4105 12.3099V12.3099L82.8084 13.8029ZM95.9608 36.7259L93.3587 38.2189L94.8598 40.8351L97.4679 39.3199L95.9608 36.7259ZM115.547 25.3473L114.04 22.7533V22.7533L115.547 25.3473ZM118.285 26.0856L120.887 24.5926V24.5926L118.285 26.0856ZM143.168 69.4534L145.77 67.9604L143.168 69.4534ZM142.442 72.1792L140.935 69.5852H140.935L142.442 72.1792ZM99.3437 97.2176L97.8367 94.6236L97.8367 94.6236L99.3437 97.2176ZM96.6054 96.4793L94.0033 97.9723L96.6054 96.4793ZM83.4529 73.5561L86.055 72.0631L84.5539 69.4469L81.9459 70.9621L83.4529 73.5561ZM63.8667 84.9349L62.3597 82.3408L62.3597 82.3409L63.8667 84.9349ZM61.1285 84.1966L58.5264 85.6896H58.5264L61.1285 84.1966ZM47.9764 61.2741L50.5785 59.7811L49.0775 57.165L46.4694 58.6801L47.9764 61.2741ZM28.3907 72.6526L26.8837 70.0586L26.8837 70.0586L28.3907 72.6526ZM25.6524 71.9144L23.0503 73.4073L23.0503 73.4074L25.6524 71.9144ZM0.769524 28.5465L-1.83258 30.0395L-1.83258 30.0395L0.769524 28.5465ZM1.49536 25.8207L3.00238 28.4147H3.00238L1.49536 25.8207ZM49.9342 0.0276078C48.5582 -2.3705 45.4898 -3.20777 43.0868 -1.81171L46.1008 3.37631C45.6123 3.66013 45.0006 3.48526 44.73 3.01359L49.9342 0.0276078ZM63.0864 22.9502L49.9342 0.0276047L44.73 3.0136L57.8821 25.9362L63.0864 22.9502ZM78.5632 10.4706L58.9772 21.8492L61.9913 27.0372L81.5772 15.6586L78.5632 10.4706ZM85.4105 12.3099C84.0346 9.91178 80.9662 9.07454 78.5632 10.4706L81.5772 15.6586C81.0887 15.9424 80.477 15.7676 80.2063 15.2959L85.4105 12.3099ZM98.563 35.2329L85.4105 12.3099L80.2063 15.2959L93.3587 38.2189L98.563 35.2329ZM97.4679 39.3199L117.054 27.9413L114.04 22.7533L94.4538 34.1319L97.4679 39.3199ZM117.054 27.9413C116.565 28.2251 115.954 28.0502 115.683 27.5786L120.887 24.5926C119.511 22.1945 116.443 21.3572 114.04 22.7533L117.054 27.9413ZM115.683 27.5786L140.566 70.9464L145.77 67.9604L120.887 24.5926L115.683 27.5786ZM140.566 70.9464C140.297 70.4783 140.45 69.8668 140.935 69.5852L143.949 74.7732C146.334 73.3878 147.136 70.3404 145.77 67.9604L140.566 70.9464ZM140.935 69.5852L97.8367 94.6236L100.851 99.8116L143.949 74.7732L140.935 69.5852ZM97.8367 94.6236C98.3252 94.3398 98.9369 94.5147 99.2075 94.9863L94.0033 97.9723C95.3793 100.37 98.4477 101.208 100.851 99.8116L97.8367 94.6236ZM99.2075 94.9863L86.055 72.0631L80.8508 75.0491L94.0033 97.9723L99.2075 94.9863ZM65.3738 87.5289L84.9599 76.1501L81.9459 70.9621L62.3597 82.3408L65.3738 87.5289ZM58.5264 85.6896C59.9023 88.0877 62.9708 88.9249 65.3738 87.5289L62.3597 82.3409C62.8483 82.057 63.46 82.2319 63.7306 82.7036L58.5264 85.6896ZM45.3743 62.7671L58.5264 85.6896L63.7306 82.7036L50.5785 59.7811L45.3743 62.7671ZM29.8977 75.2467L49.4834 63.8682L46.4694 58.6801L26.8837 70.0586L29.8977 75.2467ZM23.0503 73.4074C24.4263 75.8054 27.4947 76.6427 29.8977 75.2467L26.8837 70.0586C27.3722 69.7748 27.9839 69.9497 28.2545 70.4213L23.0503 73.4074ZM-1.83258 30.0395L23.0503 73.4073L28.2545 70.4214L3.37163 27.0535L-1.83258 30.0395ZM-0.01165 23.2267C-2.39634 24.6121 -3.19811 27.6596 -1.83258 30.0395L3.37163 27.0535C3.64023 27.5217 3.48714 28.1331 3.00238 28.4147L-0.01165 23.2267ZM43.0868 -1.81171L-0.0116509 23.2267L3.00238 28.4147L46.1008 3.37631L43.0868 -1.81171Z" fill="black" mask="url(#path-1-inside-1_2259_7773)"/>
</g>
</svg>

