<svg width="91" height="114" viewBox="0 0 91 114" fill="none" xmlns="http://www.w3.org/2000/svg">
<g filter="url(#filter0_d_610_2432)">
<path d="M85.3309 81.0598C83.3798 74.8776 86.8123 68.2796 93.0053 66.3077C103.446 63.0128 109.253 51.8502 105.958 41.4097C102.663 30.9693 91.5002 25.1622 81.0598 28.4572C74.8775 30.4083 68.2796 26.9759 66.3077 20.7828C63.0128 10.3424 51.8501 4.53536 41.4097 7.83033C30.9693 11.1253 25.1622 22.2879 28.4572 32.7283C30.4083 38.9106 26.9759 45.5086 20.7828 47.4804C10.3424 50.7754 4.53534 61.938 7.83031 72.3784C11.1253 82.8189 22.2879 88.6259 32.7283 85.331C38.9106 83.3799 45.5086 86.8123 47.4804 93.0053C50.7754 103.446 61.938 109.253 72.3784 105.958C82.8189 102.663 88.6151 91.521 85.3309 81.0598Z" fill="#FF3566"/>
<path d="M92.7043 65.3541L92.7019 65.3549C85.9863 67.4931 82.2601 74.6495 84.3769 81.3593C87.4962 91.2955 81.9904 101.876 72.0775 105.004C62.1637 108.133 51.5628 102.618 48.434 92.7044L48.4333 92.7019C46.2949 85.9859 39.1376 82.2596 32.4274 84.3773C22.5136 87.5061 11.9127 81.9912 8.78394 72.0775C5.65519 62.1637 11.17 51.5628 21.0838 48.4341L21.0862 48.4333C27.8023 46.2949 31.5286 39.1377 29.4108 32.4274C26.2821 22.5136 31.7969 11.9127 41.7107 8.78396C51.6244 5.65521 62.2253 11.17 65.3541 21.0838L65.3549 21.0862C67.4932 27.8023 74.6505 31.5286 81.3608 29.4108C91.2745 26.2821 101.875 31.7969 105.004 41.7107C108.133 51.6245 102.618 62.2254 92.7043 65.3541Z" stroke="black" stroke-width="2"/>
</g>
<defs>
<filter id="filter0_d_610_2432" x="6.90729" y="6.90729" width="103.974" height="101.974" filterUnits="userSpaceOnUse" color-interpolation-filters="sRGB">
<feFlood flood-opacity="0" result="BackgroundImageFix"/>
<feColorMatrix in="SourceAlpha" type="matrix" values="0 0 0 0 0 0 0 0 0 0 0 0 0 0 0 0 0 0 127 0" result="hardAlpha"/>
<feOffset dx="4" dy="2"/>
<feComposite in2="hardAlpha" operator="out"/>
<feColorMatrix type="matrix" values="0 0 0 0 0 0 0 0 0 0 0 0 0 0 0 0 0 0 1 0"/>
<feBlend mode="normal" in2="BackgroundImageFix" result="effect1_dropShadow_610_2432"/>
<feBlend mode="normal" in="SourceGraphic" in2="effect1_dropShadow_610_2432" result="shape"/>
</filter>
</defs>
</svg>
