<svg width="81" height="104" viewBox="0 0 81 104" fill="none" xmlns="http://www.w3.org/2000/svg">
<g filter="url(#filter0_d_610_2436)">
<path d="M55.9998 48.3639C117.658 4.11424 27.7718 -30.9686 43.1522 43.3494C27.7718 -30.9686 -33.3805 43.6888 34.4289 54.012C-33.3713 43.6651 18.7305 124.886 41.8692 65.6021C18.7305 124.886 112.077 100.434 55.1937 62.1165C112.068 100.458 117.658 4.11424 55.9998 48.3639Z" fill="#49DBC8"/>
<path d="M34.2784 55.0006L34.5798 53.0234C34.5679 53.0216 34.5559 53.0198 34.544 53.0179C17.7917 50.4603 9.28126 43.9781 5.92041 37.1008C2.55329 30.2108 4.21252 22.6479 8.36802 17.5739C12.52 12.5042 19.0114 10.07 25.3312 13.1119C31.7404 16.1969 38.3485 25.0722 42.1729 43.5521L43.1522 43.3494L44.1314 43.1468C40.3147 24.7042 43.0892 13.3266 48.1152 7.19113C53.1121 1.09125 60.5046 -0.0405914 66.5664 2.32535C72.6282 4.6913 77.2995 10.5317 76.843 18.4037C76.384 26.3217 70.7175 36.5706 55.4167 47.5515L55.9998 48.3639L56.5828 49.1763C71.9146 38.1732 82.7878 36.1209 89.5922 38.1933C96.3017 40.2368 99.4278 46.4247 99.0478 52.9666C98.6674 59.514 94.7647 66.2013 87.6204 68.9887C80.4896 71.7709 69.8386 70.7743 55.7836 61.3082C55.7732 61.3012 55.7628 61.2942 55.7524 61.2872L54.6347 62.9457C54.6348 62.9458 54.6349 62.9458 54.635 62.9459C54.6361 62.9466 54.6371 62.9473 54.6382 62.9481C54.6451 62.9527 54.6519 62.9573 54.6588 62.9619C68.7797 72.4802 73.2156 80.9034 72.8571 87.1055C72.5008 93.2682 67.3581 97.8095 60.9322 99.4925C54.5179 101.172 47.2407 99.878 42.9521 94.8103C38.6878 89.7714 37.0758 80.6338 42.8008 65.9657L41.8692 65.6021L40.9377 65.2386C35.2127 79.9066 27.8369 85.5363 21.2867 86.3542C14.6991 87.1769 8.46903 83.1993 4.88866 77.6185C1.30183 72.0275 0.595229 65.2031 4.50785 60.4285C8.44477 55.6242 17.4115 52.4332 34.241 54.9949C34.2534 54.9968 34.2657 54.9986 34.2781 55.0005C34.2782 55.0005 34.2783 55.0006 34.2784 55.0006Z" stroke="black" stroke-width="2"/>
</g>
<defs>
<filter id="filter0_d_610_2436" x="0.870483" y="0.17741" width="103.208" height="103.008" filterUnits="userSpaceOnUse" color-interpolation-filters="sRGB">
<feFlood flood-opacity="0" result="BackgroundImageFix"/>
<feColorMatrix in="SourceAlpha" type="matrix" values="0 0 0 0 0 0 0 0 0 0 0 0 0 0 0 0 0 0 127 0" result="hardAlpha"/>
<feOffset dx="4" dy="2"/>
<feComposite in2="hardAlpha" operator="out"/>
<feColorMatrix type="matrix" values="0 0 0 0 0 0 0 0 0 0 0 0 0 0 0 0 0 0 1 0"/>
<feBlend mode="normal" in2="BackgroundImageFix" result="effect1_dropShadow_610_2436"/>
<feBlend mode="normal" in="SourceGraphic" in2="effect1_dropShadow_610_2436" result="shape"/>
</filter>
</defs>
</svg>
