<svg width="92" height="126" viewBox="0 0 92 126" fill="none" xmlns="http://www.w3.org/2000/svg">
<g filter="url(#filter0_d_610_2441)">
<path d="M110.357 61.9641C107.597 61.5417 87.698 59.9573 73.473 59.9848C86.0974 53.4196 102.988 42.7754 105.245 41.1389C108.762 38.5557 109.518 33.6173 106.935 30.1003C104.352 26.5832 99.4134 25.8273 95.8963 28.4106C93.6633 30.0507 78.4501 43.008 68.4091 53.0903C72.6905 39.525 77.1314 20.0629 77.5538 17.3032C78.2134 12.9943 75.2611 8.97483 70.9522 8.31524C66.6432 7.65565 62.6237 10.6079 61.9642 14.9169C61.5417 17.6765 59.9574 37.5759 59.9848 51.8008C53.4196 39.1764 42.7754 22.2859 41.1389 20.0286C38.5557 16.5116 33.6173 15.7556 30.1003 18.3389C26.5832 20.9221 25.8273 25.8605 28.4106 29.3775C30.0507 31.6106 43.008 46.8237 53.0903 56.8648C39.525 52.5833 20.0629 48.1425 17.3033 47.72C12.9943 47.0604 8.97484 50.0127 8.31525 54.3217C7.65567 58.6306 10.6079 62.6501 14.9169 63.3097C17.6765 63.7321 37.5759 65.3165 51.8008 65.289C39.1765 71.8543 22.2859 82.4985 20.0286 84.1349C16.5116 86.7182 15.7556 91.6565 18.3389 95.1735C20.9221 98.6906 25.8605 99.4465 29.3775 96.8633C31.6106 95.2231 46.8237 82.2658 56.8648 72.1835C52.5833 85.7488 48.1425 105.211 47.72 107.971C47.0605 112.28 50.0127 116.299 54.3217 116.959C58.6306 117.618 62.6501 114.666 63.3097 110.357C63.7321 107.597 65.3165 87.698 65.289 73.473C71.8543 86.0974 82.4985 102.988 84.1349 105.245C86.7182 108.762 91.6565 109.518 95.1735 106.935C98.6906 104.352 99.4465 99.4134 96.8633 95.8963C95.2231 93.6633 82.2658 78.4501 72.1835 68.409C85.7488 72.6905 105.211 77.1314 107.971 77.5538C112.28 78.2134 116.299 75.2611 116.959 70.9522C117.618 66.6432 114.666 62.6237 110.357 61.9641Z" fill="#FFAA00"/>
<path d="M73.0117 59.0976L73.475 60.9848C87.6664 60.9574 107.512 62.5402 110.206 62.9526C113.969 63.5286 116.546 67.0378 115.97 70.8008C115.394 74.5638 111.885 77.1413 108.122 76.5653C105.428 76.1529 86.0179 71.7268 72.4845 67.4554L71.4779 69.1176C81.536 79.1346 94.4563 94.3085 96.0573 96.4883C98.3136 99.5602 97.6535 103.873 94.5816 106.129C91.5104 108.385 87.1993 107.725 84.9425 104.655C83.3344 102.435 72.7216 85.5978 66.1762 73.0117L64.289 73.475C64.3164 87.6664 62.7336 107.512 62.3212 110.206C61.7452 113.969 58.236 116.546 54.473 115.97C50.71 115.394 48.1325 111.885 48.7085 108.122C49.1209 105.428 53.547 86.0178 57.8184 72.4845L56.1562 71.4779C46.1392 81.536 30.9653 94.4563 28.7855 96.0573C25.7136 98.3136 21.4012 97.6535 19.1449 94.5816C16.8892 91.5105 17.5483 87.1996 20.6181 84.9427C22.8368 83.3354 39.6755 72.7219 52.2622 66.1762L51.7989 64.289C37.6075 64.3164 17.7622 62.7336 15.0682 62.3212C11.3052 61.7452 8.72772 58.236 9.30374 54.473C9.87976 50.71 13.3889 48.1325 17.1519 48.7085C19.8459 49.1209 39.256 53.547 52.7893 57.8184L53.796 56.1562C43.7378 46.1392 30.8175 30.9653 29.2165 28.7855C26.9602 25.7136 27.6203 21.4012 30.6923 19.1448C33.7634 16.8891 38.0744 17.5483 40.3312 20.6182C41.9389 22.8375 52.5521 39.6758 59.0976 52.2622L60.9848 51.7988C60.9574 37.6075 62.5403 17.7622 62.9526 15.0682C63.5287 11.3052 67.0378 8.72771 70.8009 9.30373C74.5639 9.87975 77.1413 13.3889 76.5653 17.1519C76.1529 19.8459 71.7268 39.256 67.4554 52.7893L69.1176 53.796C79.1347 43.7378 94.3085 30.8175 96.4883 29.2165C99.5602 26.9602 103.873 27.6203 106.129 30.6922C108.385 33.7635 107.725 38.0747 104.655 40.3314C102.435 41.9399 85.5975 52.5524 73.0117 59.0976Z" stroke="black" stroke-width="2"/>
</g>
<defs>
<filter id="filter0_d_610_2441" x="8.22314" y="8.22311" width="112.828" height="110.828" filterUnits="userSpaceOnUse" color-interpolation-filters="sRGB">
<feFlood flood-opacity="0" result="BackgroundImageFix"/>
<feColorMatrix in="SourceAlpha" type="matrix" values="0 0 0 0 0 0 0 0 0 0 0 0 0 0 0 0 0 0 127 0" result="hardAlpha"/>
<feOffset dx="4" dy="2"/>
<feComposite in2="hardAlpha" operator="out"/>
<feColorMatrix type="matrix" values="0 0 0 0 0 0 0 0 0 0 0 0 0 0 0 0 0 0 1 0"/>
<feBlend mode="normal" in2="BackgroundImageFix" result="effect1_dropShadow_610_2441"/>
<feBlend mode="normal" in="SourceGraphic" in2="effect1_dropShadow_610_2441" result="shape"/>
</filter>
</defs>
</svg>
