<svg width="111" height="133" viewBox="0 0 111 133" fill="none" xmlns="http://www.w3.org/2000/svg">
<g filter="url(#filter0_d_1301_3242)">
<path d="M121.655 76.5312C105.218 67.5229 95.629 43.0466 97.3304 14.3858C91.0318 33.8551 80.1554 49.2539 67.6969 57.3813C59.0479 45.2791 54.5127 27.0045 55.7319 6.55219C46.8919 33.8687 29.0568 53.1806 10.469 55.5932C26.9061 64.6014 36.4953 89.0777 34.7939 117.739C41.0925 98.2693 51.9689 82.8704 64.4274 74.743C73.0764 86.8452 77.6116 105.12 76.3924 125.572C85.2324 98.2556 103.067 78.9437 121.655 76.5312Z" fill="#FFF172"/>
<path d="M66.8833 57.9628L67.4405 58.7425L68.2433 58.2189C79.6136 50.8013 89.6122 37.5072 96.1367 20.7264C96.1031 45.4753 104.575 66.5791 118.843 76.0016C102.126 79.5889 86.5588 96.1642 77.588 119.229C77.6172 101.208 73.1349 85.2073 65.241 74.1616L64.6838 73.3818L63.8811 73.9055C52.5107 81.323 42.5121 94.6171 35.9876 111.398C36.0212 86.649 27.5489 65.5453 13.2811 56.1227C29.9982 52.5354 45.5655 35.9601 54.5363 12.8958C54.5071 30.9161 58.9894 46.917 66.8833 57.9628Z" stroke="black" stroke-width="2"/>
</g>
<defs>
<filter id="filter0_d_1301_3242" x="10.469" y="6.55219" width="115.186" height="121.02" filterUnits="userSpaceOnUse" color-interpolation-filters="sRGB">
<feFlood flood-opacity="0" result="BackgroundImageFix"/>
<feColorMatrix in="SourceAlpha" type="matrix" values="0 0 0 0 0 0 0 0 0 0 0 0 0 0 0 0 0 0 127 0" result="hardAlpha"/>
<feOffset dx="4" dy="2"/>
<feComposite in2="hardAlpha" operator="out"/>
<feColorMatrix type="matrix" values="0 0 0 0 0 0 0 0 0 0 0 0 0 0 0 0 0 0 1 0"/>
<feBlend mode="normal" in2="BackgroundImageFix" result="effect1_dropShadow_1301_3242"/>
<feBlend mode="normal" in="SourceGraphic" in2="effect1_dropShadow_1301_3242" result="shape"/>
</filter>
</defs>
</svg>
