<svg width="105" height="104" viewBox="0 0 105 104" fill="none" xmlns="http://www.w3.org/2000/svg" style="filter: drop-shadow(4px 2px 0 rgba(0, 0, 0, 1))">
<g filter="url(#filter0_d_2261_7875)">
<path d="M55.9997 48.3639C117.657 4.11424 27.7717 -30.9686 43.1521 43.3494C27.7717 -30.9686 -33.3807 43.6888 34.4288 54.012C-33.3714 43.6651 18.7304 124.886 41.8691 65.6021C18.7304 124.886 112.077 100.434 55.1936 62.1165C112.067 100.458 117.657 4.11424 55.9997 48.3639Z" fill="#FFA000"/>
<path d="M34.2783 55.0006L34.5797 53.0234C34.5677 53.0216 34.5558 53.0198 34.5439 53.0179C17.7916 50.4603 9.28114 43.9781 5.92029 37.1008C2.55317 30.2108 4.21239 22.6479 8.3679 17.5739C12.5199 12.5042 19.0113 10.07 25.331 13.1119C31.7403 16.1969 38.3483 25.0722 42.1728 43.5521L43.1521 43.3494L44.1313 43.1468C40.3146 24.7042 43.0891 13.3266 48.1151 7.19113C53.112 1.09125 60.5045 -0.0405914 66.5663 2.32535C72.6281 4.6913 77.2993 10.5317 76.8429 18.4037C76.3838 26.3217 70.7174 36.5706 55.4166 47.5515L55.9997 48.3639L56.5827 49.1763C71.9145 38.1732 82.7877 36.1209 89.5921 38.1933C96.3016 40.2368 99.4277 46.4247 99.0477 52.9666C98.6673 59.514 94.7646 66.2013 87.6203 68.9887C80.4895 71.7709 69.8385 70.7743 55.7835 61.3082C55.7731 61.3012 55.7627 61.2942 55.7522 61.2872L54.6346 62.9457C54.6347 62.9458 54.6348 62.9458 54.6349 62.9459C54.6359 62.9466 54.637 62.9473 54.6381 62.9481C54.6449 62.9527 54.6518 62.9573 54.6587 62.9619C68.7796 72.4802 73.2155 80.9034 72.8569 87.1055C72.5007 93.2682 67.358 97.8095 60.9321 99.4925C54.5178 101.172 47.2406 99.878 42.9519 94.8103C38.6877 89.7714 37.0757 80.6338 42.8007 65.9657L41.8691 65.6021L40.9375 65.2386C35.2125 79.9066 27.8368 85.5363 21.2866 86.3542C14.6989 87.1769 8.46891 83.1993 4.88853 77.6185C1.30171 72.0275 0.595107 65.2031 4.50773 60.4285C8.44465 55.6242 17.4114 52.4332 34.2409 54.9949C34.2532 54.9968 34.2656 54.9986 34.2779 55.0005C34.2781 55.0005 34.2782 55.0006 34.2783 55.0006Z" stroke="black" stroke-width="2"/>
</g>
</svg>
