<svg width="32" height="131" viewBox="0 0 32 131" fill="none" xmlns="http://www.w3.org/2000/svg">
<g filter="url(#filter0_d_61_1246)">
<path d="M15.324 64.05C13.2094 64.6069 11.4409 65.2114 9.90215 65.8925C0.963633 69.8134 0 76.6585 0 79.4165C0 82.1745 0.963633 89.0196 9.90215 92.9406L15.324 64.05ZM15.324 64.05C15.9306 64.2067 16.5635 64.3593 17.2248 64.5087L17.4451 63.5332L17.2248 62.5578C16.5635 62.7071 15.9306 62.8598 15.324 63.0165C13.2094 62.4595 11.4409 61.8551 9.90215 61.174C0.963633 57.253 0 50.4079 0 47.6499C0 44.8919 0.963633 38.0468 9.90215 34.1258C11.4409 33.4448 13.2094 32.8403 15.324 32.2833C15.9306 32.44 16.5635 32.5927 17.2248 32.7421L17.4451 31.7666L17.2248 30.7912C16.5635 30.9405 15.9306 31.0932 15.324 31.2499C13.2094 30.6929 11.4409 30.0885 9.90215 29.4074C0.963633 25.4864 0 18.6413 0 15.8833C0 13.1253 0.963633 6.28022 9.90215 2.35924C11.9291 1.46206 14.3548 0.697802 17.4451 0L15.324 64.05ZM78.314 114.457L78.3203 114.46C82.5552 116.299 84.8506 118.813 86.1084 121.145C87.0867 122.959 87.4575 124.702 87.5899 126H17.3612C14.4593 125.318 12.1965 124.611 10.3012 123.79C6.03323 121.917 3.73065 119.38 2.48144 117.038C1.22277 114.679 1 112.453 1 111.183C1 109.913 1.22277 107.687 2.48144 105.328C3.73091 102.986 6.03418 100.448 10.3039 98.5749L10.3069 98.5735C12.2567 97.7105 14.6161 96.9638 17.6653 96.2753L17.6653 94.3244C14.6161 93.6359 12.2567 92.8892 10.3069 92.0262L10.3039 92.0248C6.03418 90.1519 3.73091 87.6141 2.48144 85.2718C1.22277 82.9122 1 80.6863 1 79.4165C1 78.1468 1.22277 75.9208 2.48144 73.5613C3.73091 71.219 6.03418 68.6812 10.3039 66.8082L10.3069 66.8069C12.2567 65.9438 14.6161 65.1972 17.6653 64.5087V62.5578C14.6161 61.8693 12.2567 61.1226 10.3069 60.2596L10.3039 60.2582C6.03418 58.3853 3.73091 55.8474 2.48144 53.5052C1.22277 51.1456 1 48.9197 1 47.6499C1 46.3802 1.22277 44.1542 2.48144 41.7947C3.73091 39.4524 6.03418 36.9146 10.3039 35.0416L10.3069 35.0403C12.2567 34.1772 14.6161 33.4306 17.6653 32.7421V30.7912C14.6161 30.1026 12.2567 29.356 10.3069 28.4929L10.3039 28.4916C6.03418 26.6187 3.73091 24.0808 2.48144 21.7386C1.22277 19.379 1 17.1531 1 15.8833C1 14.6135 1.22277 12.3876 2.48144 10.0281C3.73091 7.68578 6.03418 5.14795 10.3039 3.27501L10.3069 3.27367C12.2336 2.42087 14.5601 1.68172 17.557 1H64.8624H87.5772C87.4669 2.2846 87.1131 4.02995 86.1394 5.85525C84.89 8.19752 82.5867 10.7354 78.317 12.6083L78.314 12.6096C76.3641 13.4727 74.0047 14.2193 70.9556 14.9079V16.8587C74.0047 17.5473 76.3641 18.2939 78.314 19.157L78.317 19.1583C82.5867 21.0313 84.89 23.5691 86.1394 25.9114C87.3981 28.2709 87.6209 30.4968 87.6209 31.7666C87.6209 33.0364 87.3981 35.2623 86.1394 37.6219C84.89 39.9641 82.5867 42.502 78.317 44.3749L78.314 44.3763C76.3641 45.2393 74.0047 45.986 70.9556 46.6745V48.6254C74.0047 49.3139 76.3641 50.0605 78.314 50.9236L78.317 50.9249C82.5867 52.7979 84.89 55.3357 86.1394 57.678C87.3981 60.0375 87.6209 62.2635 87.6209 63.5332C87.6209 64.803 87.3981 67.0289 86.1394 69.3885C84.89 71.7308 82.5867 74.2686 78.317 76.1415L78.314 76.1429C76.3641 77.0059 74.0047 77.7526 70.9556 78.4411V80.392C74.0047 81.0805 76.3641 81.8271 78.314 82.6902L78.317 82.6915C82.5867 84.5645 84.89 87.1023 86.1394 89.4446C87.3981 91.8041 87.6209 94.0301 87.6209 95.2998C87.6209 96.5696 87.3981 98.7955 86.1394 101.155C84.89 103.497 82.5867 106.035 78.317 107.908L78.314 107.909C76.3641 108.773 74.0047 109.519 70.9556 110.208V112.159C74.0047 112.847 76.3641 113.594 78.314 114.457ZM78.7187 108.824C87.6572 104.903 88.6209 98.0578 88.6209 95.2998C88.6209 92.5419 87.6572 85.6967 78.7187 81.7758C77.18 81.0947 75.4115 80.4902 73.2969 79.9333L78.7187 108.824Z" fill="#FD9FDD" stroke="black" stroke-width="2"/>
</g>
<defs>
<filter id="filter0_d_61_1246" x="0" y="0" width="94.6541" height="131" filterUnits="userSpaceOnUse" color-interpolation-filters="sRGB">
<feFlood flood-opacity="0" result="BackgroundImageFix"/>
<feColorMatrix in="SourceAlpha" type="matrix" values="0 0 0 0 0 0 0 0 0 0 0 0 0 0 0 0 0 0 127 0" result="hardAlpha"/>
<feOffset dx="6" dy="4"/>
<feComposite in2="hardAlpha" operator="out"/>
<feColorMatrix type="matrix" values="0 0 0 0 0 0 0 0 0 0 0 0 0 0 0 0 0 0 1 0"/>
<feBlend mode="normal" in2="BackgroundImageFix" result="effect1_dropShadow_61_1246"/>
<feBlend mode="normal" in="SourceGraphic" in2="effect1_dropShadow_61_1246" result="shape"/>
</filter>
</defs>
</svg>
