<svg width="68" height="16" viewBox="0 0 68 16" fill="none" xmlns="http://www.w3.org/2000/svg">
<g filter="url(#filter0_d_83_1388)">
<path d="M59.942 6C59.7327 6.07833 59.4793 6.16149 59.1778 6.24794C57.8848 6.61867 55.9317 6.98783 53.3571 7.34496C48.2215 8.05735 40.7642 8.70198 31.5196 9.24436C13.0382 10.3287 -12.5077 11 -40.7345 11C-68.9612 11 -94.5071 10.3287 -112.989 9.24436C-122.233 8.70198 -129.69 8.05735 -134.826 7.34496C-137.401 6.98783 -139.354 6.61867 -140.647 6.24794C-140.948 6.16149 -141.202 6.07833 -141.411 6C-141.202 5.92168 -140.948 5.83852 -140.647 5.75206C-139.354 5.38134 -137.401 5.01217 -134.826 4.65505C-129.69 3.94266 -122.233 3.29803 -112.989 2.75564C-94.5071 1.67133 -68.9612 1 -40.7345 1C-12.5077 1 13.0382 1.67133 31.5196 2.75564C40.7642 3.29803 48.2215 3.94266 53.3571 4.65505C55.9317 5.01217 57.8848 5.38134 59.1778 5.75206C59.4793 5.83852 59.7327 5.92168 59.942 6Z" fill="#EFEFEF" stroke="black" strokeWidth="2"/>
</g>
<defs>
<filter id="filter0_d_83_1388" x="-143" y="0" width="210.531" height="16" filterUnits="userSpaceOnUse" color-interpolation-filters="sRGB">
<feFlood flood-opacity="0" result="BackgroundImageFix"/>
<feColorMatrix in="SourceAlpha" type="matrix" values="0 0 0 0 0 0 0 0 0 0 0 0 0 0 0 0 0 0 127 0" result="hardAlpha"/>
<feOffset dx="6" dy="4"/>
<feComposite in2="hardAlpha" operator="out"/>
<feColorMatrix type="matrix" values="0 0 0 0 0 0 0 0 0 0 0 0 0 0 0 0 0 0 1 0"/>
<feBlend mode="normal" in2="BackgroundImageFix" result="effect1_dropShadow_83_1388"/>
<feBlend mode="normal" in="SourceGraphic" in2="effect1_dropShadow_83_1388" result="shape"/>
</filter>
</defs>
</svg>
