<svg width="110" height="128" viewBox="0 0 110 128" fill="none" xmlns="http://www.w3.org/2000/svg">
<g filter="url(#filter0_d_611_9839)">
<path d="M88.0405 18.4821C86.5643 22.1269 84.1528 25.1968 81.7267 28.2916C80.7026 28.9652 71.1549 38.7687 56.8902 40.1751C38.3436 42.002 21.3053 52.868 16.4523 71.2223C13.1642 84.6834 15.8374 97.7632 21.8228 109.561C24.3973 104.019 27.6616 99.4766 32.3612 95.7984C35.473 93.7672 39.0742 91.986 43.1359 90.5048C50.9846 88.0167 58.9845 87.5157 66.8477 85.0026C71.6733 83.2971 76.0839 80.1181 80.2343 77.3884C87.2711 71.8638 91.2476 63.9007 93.7598 55.1231C96.4988 42.6105 93.8256 29.5308 88.0405 18.4821Z" fill="#BEFF6C"/>
<path d="M82.2765 29.127L82.4129 29.0373L82.5138 28.9086L82.5801 28.8239C84.5498 26.3114 86.5761 23.7266 88.0809 20.789C93.1244 31.255 95.3083 43.3335 92.7897 54.8785C90.3104 63.5272 86.4262 71.2409 79.6494 76.5762C79.0864 76.9467 78.5222 77.3227 77.9559 77.7C74.3028 80.1344 70.5643 82.6257 66.5287 84.0547C62.6693 85.2869 58.7678 86.0295 54.8004 86.7805L54.7091 86.7978C50.7842 87.5408 46.7941 88.2961 42.8337 89.5516L42.8133 89.558L42.7933 89.5653C38.6686 91.0695 34.9976 92.8834 31.8146 94.961L31.7787 94.9844L31.7449 95.0109C27.4359 98.3834 24.3079 102.455 21.8219 107.286C16.5565 96.1392 14.3733 83.958 17.4215 71.4689C22.1415 53.6352 38.7324 42.9686 56.9882 41.1703L56.9883 41.1703C64.3234 40.4471 70.4256 37.568 74.8072 34.8044C77.0004 33.421 78.7699 32.062 80.0544 31.0078C80.6964 30.4809 81.2176 30.0297 81.6054 29.6937L81.6234 29.6782C81.8109 29.5157 81.9607 29.3859 82.0797 29.2857C82.1407 29.2344 82.1887 29.195 82.2258 29.1657C82.2572 29.1408 82.2727 29.1297 82.2761 29.1273C82.2769 29.1267 82.277 29.1266 82.2765 29.127Z" stroke="black" stroke-width="2"/>
</g>
<defs>
<filter id="filter0_d_611_9839" x="15.0306" y="18.4821" width="83.8094" height="93.079" filterUnits="userSpaceOnUse" color-interpolation-filters="sRGB">
<feFlood flood-opacity="0" result="BackgroundImageFix"/>
<feColorMatrix in="SourceAlpha" type="matrix" values="0 0 0 0 0 0 0 0 0 0 0 0 0 0 0 0 0 0 127 0" result="hardAlpha"/>
<feOffset dx="4" dy="2"/>
<feComposite in2="hardAlpha" operator="out"/>
<feColorMatrix type="matrix" values="0 0 0 0 0 0 0 0 0 0 0 0 0 0 0 0 0 0 1 0"/>
<feBlend mode="normal" in2="BackgroundImageFix" result="effect1_dropShadow_611_9839"/>
<feBlend mode="normal" in="SourceGraphic" in2="effect1_dropShadow_611_9839" result="shape"/>
</filter>
</defs>
</svg>
