<svg width="95" height="93" viewBox="0 0 95 93" fill="none" xmlns="http://www.w3.org/2000/svg">
<g filter="url(#filter0_d_60_1227)">
<path d="M1.45038 44.6267C1.45038 33.1167 5.96897 22.663 13.3255 14.9239C15.3589 17.5085 16.9774 21.5387 18.1103 26.455C19.3596 31.876 19.989 38.2425 19.989 44.6267C19.989 51.0109 19.3596 57.3774 18.1103 62.7985C16.9774 67.7148 15.3589 71.7449 13.3255 74.3296C5.96897 66.5905 1.45038 56.1367 1.45038 44.6267Z" fill="#FC7339" stroke="black" strokeWidth="2" shape-rendering="crispEdges"/>
<path d="M44.6107 1.54456C56.1413 1.54456 66.6132 6.05469 74.3658 13.3967C71.7762 15.4257 67.7395 17.0407 62.8158 18.1713C57.3847 19.4185 51.0065 20.0468 44.6107 20.0468C38.2149 20.0468 31.8367 19.4185 26.4056 18.1713C21.4819 17.0407 17.4452 15.4257 14.8555 13.3967C22.6082 6.05469 33.0801 1.54456 44.6107 1.54456Z" fill="#FC7339" stroke="black" strokeWidth="2" shape-rendering="crispEdges"/>
<path d="M87.771 44.6267C87.771 56.1367 83.2524 66.5905 75.8959 74.3296C73.8625 71.7449 72.244 67.7148 71.1111 62.7985C69.8618 57.3774 69.2324 51.0109 69.2324 44.6267C69.2324 38.2425 69.8618 31.876 71.1111 26.455C72.244 21.5387 73.8625 17.5085 75.8959 14.9239C83.2524 22.663 87.771 33.1167 87.771 44.6267Z" fill="#FC7339" stroke="black" strokeWidth="2" shape-rendering="crispEdges"/>
<path d="M44.6107 87.7088C33.0801 87.7088 22.6082 83.1987 14.8555 75.8567C17.4452 73.8277 21.4819 72.2127 26.4056 71.0821C31.8367 69.8349 38.2149 69.2065 44.6107 69.2065C51.0065 69.2065 57.3847 69.8349 62.8158 71.0821C67.7395 72.2127 71.7762 73.8277 74.3658 75.8567C66.6132 83.1987 56.1413 87.7088 44.6107 87.7088Z" fill="#FC7339" stroke="black" strokeWidth="2" shape-rendering="crispEdges"/>
</g>
<defs>
<filter id="filter0_d_60_1227" x="0.450378" y="0.544556" width="94.3206" height="92.1643" filterUnits="userSpaceOnUse" color-interpolation-filters="sRGB">
<feFlood flood-opacity="0" result="BackgroundImageFix"/>
<feColorMatrix in="SourceAlpha" type="matrix" values="0 0 0 0 0 0 0 0 0 0 0 0 0 0 0 0 0 0 127 0" result="hardAlpha"/>
<feOffset dx="6" dy="4"/>
<feComposite in2="hardAlpha" operator="out"/>
<feColorMatrix type="matrix" values="0 0 0 0 0 0 0 0 0 0 0 0 0 0 0 0 0 0 1 0"/>
<feBlend mode="normal" in2="BackgroundImageFix" result="effect1_dropShadow_60_1227"/>
<feBlend mode="normal" in="SourceGraphic" in2="effect1_dropShadow_60_1227" result="shape"/>
</filter>
</defs>
</svg>
