<svg width="81" height="66" viewBox="0 0 81 66" fill="none" xmlns="http://www.w3.org/2000/svg">
<g filter="url(#filter0_d_61_1244)">
<path shape-rendering="crispEdges" d="M35.2486 2.5491L35.25 2.54827C39.5172 0.0886226 45.1519 0.609921 50.9446 3.76258C56.7198 6.90573 62.4915 12.5947 66.8347 20.1152C71.1779 27.6357 73.2214 35.4806 73.0568 42.0542C72.8918 48.6478 70.5256 53.7864 66.2593 56.2455L66.2575 56.2466C60.8458 59.3814 53.1951 57.6766 45.9296 51.9604L44.8407 51.1036L44.3706 52.407C43.2382 55.547 41.3796 57.9798 38.8175 59.4509L38.816 59.4517C34.5488 61.9114 28.9141 61.3901 23.1214 58.2374C17.3462 55.0943 11.5746 49.4053 7.23135 41.8848C2.88813 34.3642 0.844685 26.5194 1.00919 19.9458C1.1742 13.3522 3.54041 8.21362 7.80672 5.75452L7.80858 5.75344C13.2203 2.61861 20.871 4.32342 28.1364 10.0396L29.2254 10.8964L29.6954 9.59296C30.8279 6.45304 32.6865 4.02023 35.2486 2.5491Z" fill="#49DBC8" stroke="black" stroke-width="2"/>
</g>
<defs>
<filter id="filter0_d_61_1244" x="0" y="0" width="80.066" height="66" filterUnits="userSpaceOnUse" color-interpolation-filters="sRGB">
<feFlood flood-opacity="0" result="BackgroundImageFix"/>
<feColorMatrix in="SourceAlpha" type="matrix" values="0 0 0 0 0 0 0 0 0 0 0 0 0 0 0 0 0 0 127 0" result="hardAlpha"/>
<feOffset dx="6" dy="4"/>
<feComposite in2="hardAlpha" operator="out"/>
<feColorMatrix type="matrix" values="0 0 0 0 0 0 0 0 0 0 0 0 0 0 0 0 0 0 1 0"/>
<feBlend mode="normal" in2="BackgroundImageFix" result="effect1_dropShadow_61_1244"/>
<feBlend mode="normal" in="SourceGraphic" in2="effect1_dropShadow_61_1244" result="shape"/>
</filter>
</defs>
</svg>